<svg width="25" height="25" viewBox="0 0 25 25" fill="none" xmlns="http://www.w3.org/2000/svg">
<g clip-path="url(#clip0_743_54304)">
<path d="M20.817 4.68878C19.2873 3.98689 17.647 3.46978 15.9319 3.17361C15.9007 3.16789 15.8695 3.18217 15.8534 3.21074C15.6424 3.58596 15.4087 4.07546 15.2451 4.4602C13.4004 4.18403 11.5652 4.18403 9.75832 4.4602C9.59465 4.06691 9.35248 3.58596 9.14057 3.21074C9.12448 3.18313 9.09328 3.16884 9.06205 3.17361C7.34791 3.46883 5.70756 3.98595 4.17693 4.68878C4.16368 4.69449 4.15233 4.70402 4.14479 4.71639C1.03339 9.36475 0.18105 13.8989 0.59918 18.3768C0.601072 18.3987 0.61337 18.4196 0.630398 18.4329C2.68321 19.9405 4.67171 20.8557 6.62328 21.4623C6.65451 21.4718 6.68761 21.4604 6.70748 21.4347C7.16913 20.8043 7.58064 20.1395 7.93348 19.4405C7.9543 19.3996 7.93442 19.351 7.89186 19.3348C7.23913 19.0872 6.6176 18.7853 6.01973 18.4425C5.97244 18.4149 5.96865 18.3472 6.01216 18.3148C6.13797 18.2206 6.26382 18.1225 6.38396 18.0234C6.40569 18.0053 6.43598 18.0015 6.46153 18.0129C10.3893 19.8062 14.6415 19.8062 18.523 18.0129C18.5485 18.0006 18.5788 18.0044 18.6015 18.0225C18.7216 18.1215 18.8475 18.2206 18.9742 18.3148C19.0177 18.3472 19.0149 18.4149 18.9676 18.4425C18.3697 18.792 17.7482 19.0872 17.0945 19.3338C17.052 19.35 17.033 19.3996 17.0538 19.4405C17.4143 20.1386 17.8258 20.8033 18.2789 21.4337C18.2978 21.4604 18.3319 21.4718 18.3631 21.4623C20.3241 20.8557 22.3126 19.9405 24.3654 18.4329C24.3834 18.4196 24.3948 18.3996 24.3967 18.3777C24.8971 13.2008 23.5585 8.70384 20.8482 4.71734C20.8416 4.70402 20.8303 4.69449 20.817 4.68878ZM8.52002 15.6502C7.3375 15.6502 6.36313 14.5645 6.36313 13.2313C6.36313 11.898 7.3186 10.8123 8.52002 10.8123C9.73087 10.8123 10.6958 11.9075 10.6769 13.2313C10.6769 14.5645 9.72141 15.6502 8.52002 15.6502ZM16.4947 15.6502C15.3123 15.6502 14.3379 14.5645 14.3379 13.2313C14.3379 11.898 15.2933 10.8123 16.4947 10.8123C17.7056 10.8123 18.6705 11.9075 18.6516 13.2313C18.6516 14.5645 17.7056 15.6502 16.4947 15.6502Z" fill="#5865F2"/>
</g>
<defs>
<clipPath id="clip0_743_54304">
<rect width="24" height="24" fill="white" transform="translate(0.5 0.533203)"/>
</clipPath>
</defs>
</svg>
