<svg width="32" height="33" viewBox="0 0 32 33" fill="none" xmlns="http://www.w3.org/2000/svg">
<g clip-path="url(#clip0_614_50785)">
<path d="M32 16.0317C32 7.19518 24.8366 0.0317383 16 0.0317383C7.16344 0.0317383 0 7.19518 0 16.0317C0 24.0177 5.85094 30.6371 13.5 31.8374V20.6567H9.4375V16.0317H13.5V12.5067C13.5 8.49674 15.8888 6.28174 19.5434 6.28174C21.2934 6.28174 23.125 6.59424 23.125 6.59424V10.5317H21.1075C19.12 10.5317 18.5 11.7652 18.5 13.0317V16.0317H22.9375L22.2281 20.6567H18.5V31.8374C26.1491 30.6371 32 24.0177 32 16.0317Z" fill="#1877F2"/>
<path d="M22.2281 20.6567L22.9375 16.0317H18.5V13.0317C18.5 11.7664 19.12 10.5317 21.1075 10.5317H23.125V6.59424C23.125 6.59424 21.2941 6.28174 19.5434 6.28174C15.8888 6.28174 13.5 8.49674 13.5 12.5067V16.0317H9.4375V20.6567H13.5V31.8374C15.1566 32.0965 16.8434 32.0965 18.5 31.8374V20.6567H22.2281Z" fill="white"/>
</g>
<defs>
<clipPath id="clip0_614_50785">
<rect width="32" height="32" fill="white" transform="translate(0 0.0317383)"/>
</clipPath>
</defs>
</svg>
