<svg width="18" height="24" viewBox="0 0 18 24" fill="none" xmlns="http://www.w3.org/2000/svg">
<path fill-rule="evenodd" clip-rule="evenodd" d="M14.7306 1.10007C14.2084 0.927631 13.6862 0.755188 13.1782 0.582745C12.5399 0.352887 11.9159 0.999499 11.9451 1.84726C12.0031 3.45646 12.0611 5.05121 12.119 6.66041C12.1336 7.192 11.8723 7.68062 11.4661 7.88177C10.6538 8.26962 9.82675 8.64321 8.99968 9.0168C8.1726 8.65766 7.34573 8.26962 6.53326 7.88177C6.11242 7.68062 5.86592 7.192 5.88052 6.66041C5.9385 5.05121 5.99647 3.45646 6.05445 1.84726C6.08364 0.985045 5.45969 0.352887 4.82134 0.582745C4.29895 0.755188 3.79115 0.942085 3.26896 1.10007C2.84813 1.24381 2.52905 1.70353 2.48547 2.26381C2.34033 4.16049 2.18079 6.05696 2.03565 7.93918C1.99207 8.47077 2.23877 8.95939 2.64501 9.17479C3.55904 9.64896 3.47208 11.2007 2.47088 11.5599C2.02126 11.7181 1.68739 12.1633 1.6438 12.6949C1.4119 15.5829 1.17959 18.4853 0.947483 21.3733C0.903899 21.9336 1.20858 22.4509 1.73097 22.6521C2.35472 22.8962 2.99327 23.1405 3.63161 23.3848C4.4297 23.6865 5.28556 23.0973 5.31454 22.2353C5.40151 19.6348 5.50307 17.0341 5.59023 14.4192C5.60463 13.8876 5.9241 13.4279 6.37372 13.2554C7.25877 12.9105 8.12943 12.5656 8.99968 12.192C9.87013 12.5514 10.7408 12.9105 11.6258 13.2554C12.0754 13.4279 12.3949 13.8876 12.4093 14.4192C12.4965 17.0199 12.5978 19.6204 12.685 22.2353C12.714 23.0973 13.5699 23.6721 14.3679 23.3848C15.0063 23.1405 15.6448 22.8962 16.2686 22.6521C16.7764 22.4509 17.0957 21.9336 17.0521 21.3733C16.82 18.4853 16.5877 15.5829 16.3557 12.6949C16.3122 12.1633 15.9931 11.7181 15.5287 11.5599C14.5275 11.2152 14.4405 9.64896 15.3545 9.17479C15.7752 8.95939 16.0075 8.45651 15.9639 7.93918C15.8188 6.04271 15.6592 4.14604 15.5141 2.26381C15.4705 1.70353 15.1514 1.22936 14.7306 1.10007" fill="white"/>
</svg>
