<svg width="44" height="44" viewBox="0 0 44 44" fill="none" xmlns="http://www.w3.org/2000/svg">
<circle cx="22" cy="22" r="22" fill="#180FDD"/>
<path fill-rule="evenodd" clip-rule="evenodd" d="M27.7306 11.1001C27.2084 10.9276 26.6862 10.7552 26.1782 10.5827C25.5399 10.3529 24.9159 10.9995 24.9451 11.8473C25.0031 13.4565 25.0611 15.0512 25.119 16.6604C25.1336 17.192 24.8723 17.6806 24.4661 17.8818C23.6538 18.2696 22.8267 18.6432 21.9997 19.0168C21.1726 18.6577 20.3457 18.2696 19.5333 17.8818C19.1124 17.6806 18.8659 17.192 18.8805 16.6604C18.9385 15.0512 18.9965 13.4565 19.0544 11.8473C19.0836 10.985 18.4597 10.3529 17.8213 10.5827C17.2989 10.7552 16.7912 10.9421 16.269 11.1001C15.8481 11.2438 15.5291 11.7035 15.4855 12.2638C15.3403 14.1605 15.1808 16.057 15.0356 17.9392C14.9921 18.4708 15.2388 18.9594 15.645 19.1748C16.559 19.649 16.4721 21.2007 15.4709 21.5599C15.0213 21.7181 14.6874 22.1633 14.6438 22.6949C14.4119 25.5829 14.1796 28.4853 13.9475 31.3733C13.9039 31.9336 14.2086 32.4509 14.731 32.6521C15.3547 32.8962 15.9933 33.1405 16.6316 33.3848C17.4297 33.6865 18.2856 33.0973 18.3145 32.2353C18.4015 29.6348 18.5031 27.0341 18.5902 24.4192C18.6046 23.8876 18.9241 23.4279 19.3737 23.2554C20.2588 22.9105 21.1294 22.5656 21.9997 22.192C22.8701 22.5514 23.7408 22.9105 24.6258 23.2554C25.0754 23.4279 25.3949 23.8876 25.4093 24.4192C25.4965 27.0199 25.5978 29.6204 25.685 32.2353C25.714 33.0973 26.5699 33.6721 27.3679 33.3848C28.0063 33.1405 28.6448 32.8962 29.2686 32.6521C29.7764 32.4509 30.0957 31.9336 30.0521 31.3733C29.82 28.4853 29.5877 25.5829 29.3557 22.6949C29.3122 22.1633 28.9931 21.7181 28.5287 21.5599C27.5275 21.2152 27.4405 19.649 28.3545 19.1748C28.7752 18.9594 29.0075 18.4565 28.9639 17.9392C28.8188 16.0427 28.6592 14.146 28.5141 12.2638C28.4705 11.7035 28.1514 11.2294 27.7306 11.1001" fill="white"/>
</svg>
