<svg width="170" height="244" viewBox="0 0 170 244" fill="none" xmlns="http://www.w3.org/2000/svg">
<path fill-rule="evenodd" clip-rule="evenodd" d="M145.422 6.48681C139.944 4.65932 134.467 2.83182 129.139 1.00433C122.444 -1.43163 115.899 5.42095 116.206 14.4052C116.814 31.459 117.422 48.3596 118.03 65.4134C118.183 71.047 115.442 76.2252 111.181 78.357C102.662 82.4672 93.9869 86.4264 85.312 90.3857C76.6372 86.5796 67.9644 82.4672 59.4427 78.357C55.0287 76.2252 52.4433 71.047 52.5963 65.4134C53.2044 48.3596 53.8125 31.459 54.4206 14.4052C54.7268 5.26777 48.1824 -1.43163 41.487 1.00433C36.0078 2.83182 30.6817 4.81249 25.2046 6.48681C20.7907 8.01008 17.444 12.882 16.9869 18.8197C15.4646 38.9201 13.7912 59.0183 12.2689 78.9654C11.8118 84.5989 14.3993 89.7772 18.6602 92.06C28.2472 97.0851 27.3351 113.53 16.8338 117.336C12.1179 119.013 8.6161 123.732 8.15897 129.365C5.7266 159.971 3.28999 190.73 0.855503 221.336C0.398372 227.273 3.59404 232.756 9.07323 234.888C15.6155 237.475 22.313 240.064 29.0084 242.653C37.3792 245.85 46.356 239.606 46.66 230.471C47.5722 202.912 48.6374 175.35 49.5516 147.638C49.7026 142.004 53.0535 137.133 57.7694 135.305C67.0523 131.65 76.1843 127.995 85.312 124.036C94.4419 127.844 103.574 131.65 112.857 135.305C117.573 137.133 120.924 142.004 121.075 147.638C121.989 175.199 123.052 202.759 123.966 230.471C124.27 239.606 133.247 245.697 141.618 242.653C148.313 240.064 155.011 237.475 161.553 234.888C166.879 232.756 170.228 227.273 169.771 221.336C167.336 190.73 164.9 159.971 162.467 129.365C162.01 123.732 158.663 119.013 153.792 117.336C143.291 113.684 142.379 97.0851 151.966 92.06C156.378 89.7772 158.814 84.4479 158.357 78.9654C156.835 58.8672 155.162 38.7669 153.639 18.8197C153.182 12.882 149.836 7.8569 145.422 6.48681" fill="#6309FF"/>
</svg>
