<svg width="135" height="32" viewBox="0 0 135 32" fill="none" xmlns="http://www.w3.org/2000/svg">
<path fill-rule="evenodd" clip-rule="evenodd" d="M19.0354 0.788388C18.3145 0.54773 17.5935 0.307072 16.8921 0.0664135C16.0108 -0.254371 15.1493 0.648028 15.1896 1.83115C15.2697 4.07692 15.3497 6.30252 15.4298 8.54829C15.4499 9.29015 15.0892 9.97207 14.5283 10.2528C13.4068 10.7941 12.2649 11.3154 11.123 11.8368C9.9811 11.3356 8.83948 10.7941 7.71773 10.2528C7.1367 9.97207 6.79637 9.29015 6.81652 8.54829C6.89657 6.30252 6.97661 4.07692 7.05666 1.83115C7.09696 0.627856 6.2355 -0.254371 5.35416 0.0664135C4.63292 0.307072 3.93182 0.567902 3.21086 0.788388C2.62983 0.988984 2.1893 1.63055 2.12913 2.41248C1.92873 5.05944 1.70847 7.70612 1.50808 10.3329C1.4479 11.0748 1.78852 11.7567 2.34939 12.0573C3.61136 12.719 3.49129 14.8847 2.10898 15.3859C1.48821 15.6067 1.02725 16.2281 0.967074 16.9699C0.646893 21.0003 0.326153 25.0509 0.00569281 29.0813C-0.054481 29.8632 0.366176 30.5852 1.08742 30.8659C1.94861 31.2066 2.83022 31.5475 3.71156 31.8885C4.81344 32.3096 5.99508 31.4873 6.0351 30.2843C6.15517 26.6551 6.29539 23.0256 6.41574 19.3762C6.43561 18.6344 6.8767 17.9928 7.49747 17.7521C8.71941 17.2708 9.92149 16.7895 11.123 16.2681C12.3248 16.7696 13.5269 17.2708 14.7488 17.7521C15.3696 17.9928 15.8107 18.6344 15.8306 19.3762C15.9509 23.0057 16.0908 26.6349 16.2112 30.2843C16.2512 31.4873 17.4329 32.2894 18.5347 31.8885C19.4161 31.5475 20.2977 31.2066 21.1589 30.8659C21.86 30.5852 22.3008 29.8632 22.2406 29.0813C21.9201 25.0509 21.5994 21.0003 21.2792 16.9699C21.219 16.2281 20.7785 15.6067 20.1373 15.3859C18.755 14.9049 18.6349 12.719 19.8969 12.0573C20.4776 11.7567 20.7984 11.0549 20.7382 10.3329C20.5378 7.68623 20.3176 5.03927 20.1172 2.41248C20.057 1.63055 19.6165 0.968812 19.0354 0.788388Z" fill="#6309FF"/>
<path fill-rule="evenodd" clip-rule="evenodd" d="M38.272 6.4043H42.3632V12.6925H48.9345V6.4043H53.026V22.4144H48.9345V15.8987H42.3632V22.4144H38.272V6.4043Z" fill="#6309FF"/>
<path fill-rule="evenodd" clip-rule="evenodd" d="M58.6992 6.40234H62.77V15.9794C62.77 16.9308 63.0387 17.6755 63.5554 18.2134C64.0717 18.7513 64.8157 19.02 65.7661 19.02C66.6959 19.02 67.4398 18.7513 67.9772 18.2341C68.5145 17.7169 68.7829 16.9515 68.7829 15.9794V6.40234H72.8745V16.2276C72.8745 18.2341 72.2338 19.8061 70.9321 20.9438C69.6304 22.0813 67.9153 22.6399 65.7457 22.6399C64.5473 22.6399 63.4932 22.4951 62.6046 22.1847C61.6953 21.8745 60.9517 21.4403 60.3936 20.8609C59.8358 20.2818 59.4017 19.6198 59.1333 18.8547C58.8646 18.0893 58.7196 17.1997 58.7196 16.2276V6.40234H58.6992Z" fill="#6309FF"/>
<path fill-rule="evenodd" clip-rule="evenodd" d="M78.5381 6.40234H83.5594L87.0517 14.3867H87.2171L90.6473 6.40234H95.689V22.4124H91.7214V16.3724L91.949 12.0493H91.7836L87.1342 22.1847L82.4852 12.0493H82.2991L82.5263 16.4136V22.4124H78.5381V6.40234Z" fill="#6309FF"/>
<path fill-rule="evenodd" clip-rule="evenodd" d="M109.66 16.8504L109.185 15.3611L107.903 10.707H107.759L106.374 15.3611L105.899 16.8504H109.66ZM105.361 6.4043H110.134L115.92 22.4144H111.415L110.651 19.9941H104.885L104.1 22.4144H99.8638L105.361 6.4043Z" fill="#6309FF"/>
<mask id="mask0_4755_14436" style="mask-type:luminance" maskUnits="userSpaceOnUse" x="119" y="6" width="16" height="17">
<path fill-rule="evenodd" clip-rule="evenodd" d="M119.824 6.40234H134.227V22.4124H119.824V6.40234Z" fill="white"/>
</mask>
<g mask="url(#mask0_4755_14436)">
<path fill-rule="evenodd" clip-rule="evenodd" d="M119.824 6.40234H124.515L130.218 16.5792H130.383L130.156 12.07V6.40234H134.227V22.4124H129.557L123.895 12.339H123.729L123.936 16.7033V22.4124H119.845V6.40234H119.824Z" fill="#6309FF"/>
</g>
</svg>
