<svg width="64" height="65" viewBox="0 0 64 65" fill="none" xmlns="http://www.w3.org/2000/svg">
<rect y="0.523926" width="64" height="64" rx="32" fill="url(#paint0_linear_814_50623)" fill-opacity="0.3"/>
<path d="M26.667 40.5238H37.3337M26.667 40.5238C26.667 43.4693 29.0548 45.8571 32.0003 45.8571C34.9458 45.8571 37.3337 43.4693 37.3337 40.5238M26.667 40.5238V37.5754C26.667 36.7037 26.2224 35.9055 25.589 35.3066C23.7897 33.6052 22.667 31.1956 22.667 28.5238C22.667 23.3691 26.8457 19.1904 32.0003 19.1904C37.155 19.1904 41.3337 23.3691 41.3337 28.5238C41.3337 31.1956 40.211 33.6052 38.4116 35.3066C37.7782 35.9055 37.3337 36.7037 37.3337 37.5754V40.5238M29.3337 28.5238L32.0003 31.1904M32.0003 31.1904L34.667 28.5238M32.0003 31.1904V40.5238" stroke="url(#paint1_linear_814_50623)" stroke-width="3" stroke-linecap="round" stroke-linejoin="round"/>
<defs>
<linearGradient id="paint0_linear_814_50623" x1="0.0230951" y1="32.5239" x2="62.1972" y2="43.1785" gradientUnits="userSpaceOnUse">
<stop stop-color="#2C69D1"/>
<stop offset="0.932292" stop-color="#0ABCF9"/>
</linearGradient>
<linearGradient id="paint1_linear_814_50623" x1="22.6737" y1="32.5238" x2="41.0756" y2="34.7312" gradientUnits="userSpaceOnUse">
<stop stop-color="#2C69D1"/>
<stop offset="0.932292" stop-color="#0ABCF9"/>
</linearGradient>
</defs>
</svg>
