<svg width="32" height="33" viewBox="0 0 32 33" fill="none" xmlns="http://www.w3.org/2000/svg">
<g clip-path="url(#clip0_614_50789)">
<path d="M16 2.91299C20.275 2.91299 20.7813 2.93174 22.4625 3.00674C24.025 3.07549 24.8688 3.33799 25.4313 3.55674C26.175 3.84424 26.7125 4.19424 27.2688 4.75049C27.8313 5.31299 28.175 5.84424 28.4625 6.58799C28.6813 7.15049 28.9438 8.00049 29.0125 9.55674C29.0875 11.2442 29.1063 11.7505 29.1063 16.0192C29.1063 20.2942 29.0875 20.8005 29.0125 22.4817C28.9438 24.0442 28.6813 24.888 28.4625 25.4505C28.175 26.1942 27.825 26.7317 27.2688 27.288C26.7063 27.8505 26.175 28.1942 25.4313 28.4817C24.8688 28.7005 24.0188 28.963 22.4625 29.0317C20.775 29.1067 20.2688 29.1255 16 29.1255C11.725 29.1255 11.2188 29.1067 9.5375 29.0317C7.975 28.963 7.13125 28.7005 6.56875 28.4817C5.825 28.1942 5.2875 27.8442 4.73125 27.288C4.16875 26.7255 3.825 26.1942 3.5375 25.4505C3.31875 24.888 3.05625 24.038 2.9875 22.4817C2.9125 20.7942 2.89375 20.288 2.89375 16.0192C2.89375 11.7442 2.9125 11.238 2.9875 9.55674C3.05625 7.99424 3.31875 7.15049 3.5375 6.58799C3.825 5.84424 4.175 5.30674 4.73125 4.75049C5.29375 4.18799 5.825 3.84424 6.56875 3.55674C7.13125 3.33799 7.98125 3.07549 9.5375 3.00674C11.2188 2.93174 11.725 2.91299 16 2.91299ZM16 0.0317383C11.6563 0.0317383 11.1125 0.0504883 9.40625 0.125488C7.70625 0.200488 6.5375 0.475488 5.525 0.869238C4.46875 1.28174 3.575 1.82549 2.6875 2.71924C1.79375 3.60674 1.25 4.50049 0.8375 5.55049C0.44375 6.56924 0.16875 7.73174 0.09375 9.43174C0.01875 11.1442 0 11.688 0 16.0317C0 20.3755 0.01875 20.9192 0.09375 22.6255C0.16875 24.3255 0.44375 25.4942 0.8375 26.5067C1.25 27.563 1.79375 28.4567 2.6875 29.3442C3.575 30.2317 4.46875 30.7817 5.51875 31.188C6.5375 31.5817 7.7 31.8567 9.4 31.9317C11.1063 32.0067 11.65 32.0255 15.9938 32.0255C20.3375 32.0255 20.8813 32.0067 22.5875 31.9317C24.2875 31.8567 25.4563 31.5817 26.4688 31.188C27.5188 30.7817 28.4125 30.2317 29.3 29.3442C30.1875 28.4567 30.7375 27.563 31.1438 26.513C31.5375 25.4942 31.8125 24.3317 31.8875 22.6317C31.9625 20.9255 31.9813 20.3817 31.9813 16.038C31.9813 11.6942 31.9625 11.1505 31.8875 9.44424C31.8125 7.74424 31.5375 6.57549 31.1438 5.56299C30.75 4.50049 30.2063 3.60674 29.3125 2.71924C28.425 1.83174 27.5313 1.28174 26.4813 0.875488C25.4625 0.481738 24.3 0.206738 22.6 0.131738C20.8875 0.0504883 20.3438 0.0317383 16 0.0317383Z" fill="url(#paint0_linear_614_50789)"/>
<path d="M16 7.81299C11.4625 7.81299 7.78125 11.4942 7.78125 16.0317C7.78125 20.5692 11.4625 24.2505 16 24.2505C20.5375 24.2505 24.2188 20.5692 24.2188 16.0317C24.2188 11.4942 20.5375 7.81299 16 7.81299ZM16 21.363C13.0563 21.363 10.6687 18.9755 10.6687 16.0317C10.6687 13.088 13.0563 10.7005 16 10.7005C18.9438 10.7005 21.3312 13.088 21.3312 16.0317C21.3312 18.9755 18.9438 21.363 16 21.363Z" fill="url(#paint1_linear_614_50789)"/>
<path d="M26.4625 7.48809C26.4625 8.55059 25.6 9.40684 24.5438 9.40684C23.4813 9.40684 22.625 8.54434 22.625 7.48809C22.625 6.42559 23.4875 5.56934 24.5438 5.56934C25.6 5.56934 26.4625 6.43184 26.4625 7.48809Z" fill="url(#paint2_linear_614_50789)"/>
</g>
<defs>
<linearGradient id="paint0_linear_614_50789" x1="-1.78709e-07" y1="16.0286" x2="31.9813" y2="16.0286" gradientUnits="userSpaceOnUse">
<stop offset="0.385417" stop-color="#F1577D"/>
<stop offset="1" stop-color="#CA0000" stop-opacity="0.49"/>
</linearGradient>
<linearGradient id="paint1_linear_614_50789" x1="7.78125" y1="16.0317" x2="24.2187" y2="16.0317" gradientUnits="userSpaceOnUse">
<stop offset="0.385417" stop-color="#F1577D"/>
<stop offset="1" stop-color="#CA0000" stop-opacity="0.49"/>
</linearGradient>
<linearGradient id="paint2_linear_614_50789" x1="22.625" y1="7.48809" x2="26.4625" y2="7.48809" gradientUnits="userSpaceOnUse">
<stop offset="0.385417" stop-color="#F1577D"/>
<stop offset="1" stop-color="#CA0000" stop-opacity="0.49"/>
</linearGradient>
<clipPath id="clip0_614_50789">
<rect width="32" height="32" fill="white" transform="translate(0 0.0317383)"/>
</clipPath>
</defs>
</svg>
