<svg width="32" height="33" viewBox="0 0 32 33" fill="none" xmlns="http://www.w3.org/2000/svg">
<g clip-path="url(#clip0_614_50787)">
<path d="M29.6378 0.0317383H2.36222C1.73572 0.0317383 1.13488 0.280615 0.691879 0.723618C0.248877 1.16662 0 1.76746 0 2.39396V29.6695C0 30.296 0.248877 30.8969 0.691879 31.3399C1.13488 31.7829 1.73572 32.0317 2.36222 32.0317H29.6378C30.2643 32.0317 30.8651 31.7829 31.3081 31.3399C31.7511 30.8969 32 30.296 32 29.6695V2.39396C32 1.76746 31.7511 1.16662 31.3081 0.723618C30.8651 0.280615 30.2643 0.0317383 29.6378 0.0317383ZM9.53778 27.2917H4.72667V12.0095H9.53778V27.2917ZM7.12889 9.89174C6.58315 9.88867 6.05055 9.724 5.59831 9.41852C5.14607 9.11304 4.79445 8.68045 4.58784 8.17532C4.38122 7.6702 4.32886 7.11519 4.43737 6.58034C4.54589 6.04549 4.8104 5.55477 5.19754 5.17011C5.58468 4.78545 6.07709 4.52409 6.61262 4.41902C7.14816 4.31394 7.70282 4.36986 8.2066 4.57972C8.71039 4.78957 9.14072 5.14396 9.44329 5.59815C9.74585 6.05235 9.9071 6.58599 9.90667 7.13174C9.91182 7.49712 9.84335 7.85979 9.70535 8.19814C9.56735 8.5365 9.36264 8.84361 9.10343 9.10116C8.84421 9.35872 8.5358 9.56145 8.19657 9.69727C7.85733 9.8331 7.49423 9.89923 7.12889 9.89174ZM27.2711 27.3051H22.4622V18.9562C22.4622 16.494 21.4156 15.734 20.0644 15.734C18.6378 15.734 17.2378 16.8095 17.2378 19.0184V27.3051H12.4267V12.0206H17.0533V14.1384H17.1156C17.58 13.1984 19.2067 11.5917 21.6889 11.5917C24.3733 11.5917 27.2733 13.1851 27.2733 17.8517L27.2711 27.3051Z" fill="#0A66C2"/>
</g>
<defs>
<clipPath id="clip0_614_50787">
<rect width="32" height="32" fill="white" transform="translate(0 0.0317383)"/>
</clipPath>
</defs>
</svg>
