<svg width="147" height="147" viewBox="0 0 147 147" fill="none" xmlns="http://www.w3.org/2000/svg">
<g clip-path="url(#clip0_844_53345)">
<path d="M17.0698 128.47C15.4898 128.47 13.9098 127.87 12.7098 126.66C10.2998 124.25 10.2998 120.34 12.7098 117.93L47.2898 83.35C52.7298 77.91 52.7298 69.06 47.2898 63.63L12.7098 29.05C10.2998 26.64 10.2998 22.73 12.7098 20.32C15.1198 17.91 19.0298 17.91 21.4398 20.32L56.0198 54.91C66.2698 65.16 66.2698 81.84 56.0198 92.08L21.4298 126.66C20.2298 127.86 18.6498 128.47 17.0698 128.47Z" fill="white"/>
<path d="M130.63 128.47C129.05 128.47 127.47 127.87 126.27 126.66L91.6904 92.08C81.4404 81.83 81.4404 65.15 91.6904 54.91L126.27 20.32C128.68 17.91 132.59 17.91 135 20.32C137.41 22.73 137.41 26.64 135 29.05L100.42 63.63C94.9804 69.07 94.9804 77.92 100.42 83.35L135 117.93C137.41 120.34 137.41 124.25 135 126.66C133.8 127.86 132.22 128.47 130.64 128.47H130.63Z" fill="white"/>
<path d="M140.82 79.66H114.07C110.66 79.66 107.9 76.9 107.9 73.49C107.9 70.08 110.66 67.32 114.07 67.32H140.82C144.23 67.32 146.99 70.08 146.99 73.49C146.99 76.9 144.23 79.66 140.82 79.66Z" fill="white"/>
<path d="M32.92 79.66H6.17C2.76 79.66 0 76.9 0 73.49C0 70.08 2.76 67.32 6.17 67.32H32.92C36.33 67.32 39.09 70.08 39.09 73.49C39.09 76.9 36.33 79.66 32.92 79.66Z" fill="white"/>
<path d="M73.4903 146.99C70.0803 146.99 67.3203 144.23 67.3203 140.82V114.07C67.3203 110.66 70.0803 107.9 73.4903 107.9C76.9003 107.9 79.6603 110.66 79.6603 114.07V140.82C79.6603 144.23 76.9003 146.99 73.4903 146.99Z" fill="white"/>
<path d="M73.4903 39.09C70.0803 39.09 67.3203 36.33 67.3203 32.92V6.17C67.3203 2.76 70.0803 0 73.4903 0C76.9003 0 79.6603 2.76 79.6603 6.17V32.92C79.6603 36.33 76.9003 39.09 73.4903 39.09Z" fill="white"/>
</g>
<defs>
<clipPath id="clip0_844_53345">
<rect width="146.99" height="146.99" fill="white"/>
</clipPath>
</defs>
</svg>
