<svg width="48" height="49" viewBox="0 0 48 49" fill="none" xmlns="http://www.w3.org/2000/svg">
<rect y="0.0239258" width="48" height="48" rx="24" fill="url(#paint0_linear_814_50738)" fill-opacity="0.15"/>
<path d="M34.3706 14.9497V22.0793" stroke="url(#paint1_linear_814_50738)" stroke-width="1.12304" stroke-linecap="round"/>
<path d="M30.3516 17.5425V16.3759H28.0183V17.5425H30.3516ZM19.9812 17.5425V16.3759H17.6479V17.5425H19.9812ZM23.9998 11.061L24.4094 9.96865C24.1453 9.86961 23.8542 9.86961 23.5901 9.96865L23.9998 11.061ZM13.6294 14.9499L13.2198 13.8575C12.7644 14.0283 12.4627 14.4636 12.4627 14.9499C12.4627 15.4362 12.7644 15.8716 13.2198 16.0423L13.6294 14.9499ZM23.9998 18.8388L23.5901 19.9312C23.8542 20.0302 24.1453 20.0302 24.4094 19.9312L23.9998 18.8388ZM34.3701 14.9499L34.7798 16.0423C35.2351 15.8716 35.5368 15.4362 35.5368 14.9499C35.5368 14.4636 35.2351 14.0283 34.7798 13.8575L34.3701 14.9499ZM24.9215 30.5131L24.0919 29.6927L24.0919 29.6927L24.9215 30.5131ZM26.9807 28.4309L27.8102 29.2512L27.8102 29.2512L26.9807 28.4309ZM28.1972 28.0997L28.5263 26.9805L28.5263 26.9805L28.1972 28.0997ZM21.0189 28.4309L21.8484 27.6105L21.8484 27.6105L21.0189 28.4309ZM23.0781 30.5131L23.9076 29.6927L23.9076 29.6927L23.0781 30.5131ZM19.8024 28.0997L19.4732 26.9805L19.4732 26.9805L19.8024 28.0997ZM33.2035 36.987C33.2035 37.6313 33.7258 38.1536 34.3701 38.1536C35.0145 38.1536 35.5368 37.6313 35.5368 36.987H33.2035ZM12.4627 36.987C12.4627 37.6313 12.9851 38.1536 13.6294 38.1536C14.2737 38.1536 14.7961 37.6313 14.7961 36.987H12.4627ZM28.0183 17.5425V20.1351H30.3516V17.5425H28.0183ZM19.9812 20.1351V17.5425H17.6479V20.1351H19.9812ZM23.9998 24.1536C21.7804 24.1536 19.9812 22.3545 19.9812 20.1351H17.6479C17.6479 23.6431 20.4917 26.487 23.9998 26.487V24.1536ZM28.0183 20.1351C28.0183 22.3545 26.2191 24.1536 23.9998 24.1536V26.487C27.5078 26.487 30.3516 23.6431 30.3516 20.1351H28.0183ZM23.5901 9.96865L13.2198 13.8575L14.039 16.0423L24.4094 12.1534L23.5901 9.96865ZM24.4094 19.9312L34.7798 16.0423L33.9605 13.8575L23.5901 17.7464L24.4094 19.9312ZM23.5901 12.1534L33.9605 16.0423L34.7798 13.8575L24.4094 9.96865L23.5901 12.1534ZM24.4094 17.7464L14.039 13.8575L13.2198 16.0423L23.5901 19.9312L24.4094 17.7464ZM25.751 31.3334L27.8102 29.2512L26.1511 27.6105L24.0919 29.6927L25.751 31.3334ZM27.868 29.219C31.2987 30.2279 33.2035 32.353 33.2035 34.3944H35.5368C35.5368 30.8173 32.3682 28.1102 28.5263 26.9805L27.868 29.219ZM20.1893 29.2512L22.2485 31.3334L23.9076 29.6927L21.8484 27.6105L20.1893 29.2512ZM14.7961 34.3944C14.7961 32.353 16.7008 30.2279 20.1315 29.219L19.4732 26.9805C15.6313 28.1102 12.4627 30.8173 12.4627 34.3944H14.7961ZM33.2035 34.3944V36.987H35.5368V34.3944H33.2035ZM12.4627 34.3944V36.987H14.7961V34.3944H12.4627ZM21.8484 27.6105C21.2533 27.0088 20.3519 26.7221 19.4732 26.9805L20.1315 29.219C20.1315 29.219 20.1314 29.219 20.1312 29.2191C20.131 29.2191 20.1311 29.2191 20.1315 29.2191C20.1324 29.2191 20.1355 29.2192 20.141 29.2207C20.1527 29.2239 20.171 29.2327 20.1893 29.2512L21.8484 27.6105ZM27.8102 29.2512C27.8285 29.2327 27.8469 29.2239 27.8585 29.2207C27.864 29.2192 27.8672 29.2191 27.868 29.2191C27.8684 29.2191 27.8685 29.2191 27.8683 29.2191C27.8681 29.219 27.868 29.219 27.868 29.219L28.5263 26.9805C27.6477 26.7221 26.7462 27.0088 26.1511 27.6105L27.8102 29.2512ZM24.0919 29.6927C24.0412 29.744 23.9583 29.744 23.9076 29.6927L22.2485 31.3334C23.2125 32.3082 24.787 32.3082 25.751 31.3334L24.0919 29.6927Z" fill="url(#paint2_linear_814_50738)"/>
<defs>
<linearGradient id="paint0_linear_814_50738" x1="0.0173213" y1="24.0239" x2="46.6479" y2="32.0149" gradientUnits="userSpaceOnUse">
<stop stop-color="#2C69D1"/>
<stop offset="0.932292" stop-color="#0ABCF9"/>
</linearGradient>
<linearGradient id="paint1_linear_814_50738" x1="34.371" y1="18.5145" x2="35.3704" y2="18.5385" gradientUnits="userSpaceOnUse">
<stop stop-color="#2C69D1"/>
<stop offset="0.932292" stop-color="#0ABCF9"/>
</linearGradient>
<linearGradient id="paint2_linear_814_50738" x1="13.6369" y1="24.024" x2="33.995" y2="26.815" gradientUnits="userSpaceOnUse">
<stop stop-color="#2C69D1"/>
<stop offset="0.932292" stop-color="#0ABCF9"/>
</linearGradient>
</defs>
</svg>
