<svg width="25" height="25" viewBox="0 0 25 25" fill="none" xmlns="http://www.w3.org/2000/svg">
<g clip-path="url(#clip0_743_54303)">
<path d="M12.5 24.5332C19.1274 24.5332 24.5 19.1606 24.5 12.5332C24.5 5.90579 19.1274 0.533203 12.5 0.533203C5.87258 0.533203 0.5 5.90579 0.5 12.5332C0.5 19.1606 5.87258 24.5332 12.5 24.5332Z" fill="url(#paint0_linear_743_54303)"/>
<path fill-rule="evenodd" clip-rule="evenodd" d="M5.93201 12.4066C9.43026 10.8825 11.763 9.87772 12.9301 9.39225C16.2627 8.00614 16.9551 7.76536 17.4065 7.75741C17.5058 7.75566 17.7277 7.78026 17.8715 7.89692C17.9929 7.99543 18.0263 8.1285 18.0423 8.2219C18.0583 8.3153 18.0782 8.52806 18.0623 8.6943C17.8817 10.5918 17.1003 15.1965 16.7028 17.3217C16.5346 18.2209 16.2034 18.5225 15.8827 18.552C15.1858 18.6161 14.6567 18.0914 13.9817 17.649C12.9256 16.9567 12.3289 16.5257 11.3037 15.8501C10.119 15.0694 10.887 14.6403 11.5622 13.939C11.7389 13.7554 14.8093 10.9627 14.8687 10.7093C14.8762 10.6776 14.8831 10.5595 14.8129 10.4972C14.7427 10.4348 14.6392 10.4561 14.5644 10.4731C14.4585 10.4971 12.7713 11.6123 9.50276 13.8187C9.02385 14.1475 8.59007 14.3078 8.20141 14.2994C7.77295 14.2901 6.94876 14.0571 6.33606 13.8579C5.58456 13.6137 4.98728 13.4845 5.03929 13.0696C5.06638 12.8535 5.36395 12.6325 5.93201 12.4066Z" fill="white"/>
</g>
<defs>
<linearGradient id="paint0_linear_743_54303" x1="12.5" y1="0.533203" x2="12.5" y2="24.3552" gradientUnits="userSpaceOnUse">
<stop stop-color="#2AABEE"/>
<stop offset="1" stop-color="#229ED9"/>
</linearGradient>
<clipPath id="clip0_743_54303">
<rect width="24" height="24" fill="white" transform="translate(0.5 0.533203)"/>
</clipPath>
</defs>
</svg>
