<svg width="32" height="33" viewBox="0 0 32 33" fill="none" xmlns="http://www.w3.org/2000/svg">
<path d="M10.0634 29.0324C22.1389 29.0324 28.7437 19.0279 28.7437 10.3521C28.7437 10.0679 28.7437 9.78507 28.7245 9.50347C30.0094 8.57407 31.1185 7.42331 32 6.10507C30.8019 6.63627 29.5307 6.98447 28.2291 7.13803C29.5998 6.31761 30.6255 5.02707 31.1155 3.50667C29.8268 4.27148 28.4168 4.81043 26.9466 5.10027C25.9567 4.0477 24.6475 3.35072 23.2216 3.11718C21.7957 2.88364 20.3326 3.12655 19.0586 3.80834C17.7847 4.49012 16.771 5.57276 16.1743 6.88873C15.5777 8.2047 15.4314 9.68062 15.7581 11.0881C13.1479 10.9572 10.5943 10.2788 8.26327 9.09707C5.9322 7.91533 3.87569 6.25661 2.2272 4.22859C1.38764 5.67391 1.1305 7.38489 1.50813 9.01315C1.88577 10.6414 2.86979 12.0645 4.25984 12.9927C3.21498 12.9621 2.19286 12.6803 1.28 12.171V12.2542C1.28041 13.77 1.80513 15.239 2.76516 16.412C3.72519 17.585 5.06141 18.3899 6.5472 18.69C5.58064 18.9537 4.5665 18.9922 3.58272 18.8027C4.00242 20.1071 4.81924 21.2478 5.91899 22.0653C7.01873 22.8827 8.34644 23.3361 9.71648 23.362C8.35525 24.432 6.79642 25.2231 5.12917 25.69C3.46191 26.157 1.71895 26.2906 0 26.0833C3.00244 28.01 6.4959 29.032 10.0634 29.0273" fill="#1DA1F2"/>
</svg>
