<svg width="27" height="27" viewBox="0 0 27 27" fill="none" xmlns="http://www.w3.org/2000/svg">
<path d="M26.1031 13.2466C26.1031 20.0857 20.5589 25.6299 13.7198 25.6299M26.1031 13.2466C26.1031 6.40749 20.5589 0.863281 13.7198 0.863281M26.1031 13.2466C26.1031 11.1949 20.5589 9.53161 13.7198 9.53161C6.88063 9.53161 1.33643 11.1949 1.33643 13.2466M26.1031 13.2466C26.1031 15.2984 20.5589 16.9616 13.7198 16.9616C6.88063 16.9616 1.33643 15.2984 1.33643 13.2466M13.7198 25.6299C6.88063 25.6299 1.33643 20.0857 1.33643 13.2466M13.7198 25.6299C16.4554 25.6299 18.6731 20.0857 18.6731 13.2466C18.6731 6.40749 16.4554 0.863281 13.7198 0.863281M13.7198 25.6299C10.9841 25.6299 8.76643 20.0857 8.76643 13.2466C8.76643 6.40749 10.9841 0.863281 13.7198 0.863281M1.33643 13.2466C1.33643 6.40749 6.88063 0.863281 13.7198 0.863281" stroke="url(#paint0_linear_766_50822)" stroke-width="1.63849"/>
<defs>
<linearGradient id="paint0_linear_766_50822" x1="1.34536" y1="13.2466" x2="25.4055" y2="17.3697" gradientUnits="userSpaceOnUse">
<stop stop-color="#2C69D1"/>
<stop offset="0.932292" stop-color="#0ABCF9"/>
</linearGradient>
</defs>
</svg>
